<?xml version="1.0" encoding="UTF-8" standalone="no"?>
<!-- Created with Inkscape (http://www.inkscape.org/) -->

<svg
   xmlns:dc="http://purl.org/dc/elements/1.1/"
   xmlns:cc="http://creativecommons.org/ns#"
   xmlns:rdf="http://www.w3.org/1999/02/22-rdf-syntax-ns#"
   xmlns:svg="http://www.w3.org/2000/svg"
   xmlns="http://www.w3.org/2000/svg"
   xmlns:sodipodi="http://sodipodi.sourceforge.net/DTD/sodipodi-0.dtd"
   xmlns:inkscape="http://www.inkscape.org/namespaces/inkscape"
   width="55.267235mm"
   height="40.287159mm"
   viewBox="0 0 55.267237 40.28716"
   version="1.1"
   id="svg8"
   inkscape:version="0.92.5 (2060ec1f9f, 2020-04-08)"
   sodipodi:docname="clair-cloud.svg">
  <defs
     id="defs2">
    <inkscape:path-effect
       effect="bspline"
       id="path-effect823"
       is_visible="true"
       weight="33.333333"
       steps="2"
       helper_size="0"
       apply_no_weight="true"
       apply_with_weight="true"
       only_selected="false" />
    <inkscape:path-effect
       effect="bspline"
       id="path-effect819"
       is_visible="true"
       weight="33.333333"
       steps="2"
       helper_size="0"
       apply_no_weight="true"
       apply_with_weight="true"
       only_selected="false" />
  </defs>
  <sodipodi:namedview
     id="base"
     pagecolor="#ffffff"
     bordercolor="#666666"
     borderopacity="1.0"
     inkscape:pageopacity="0.0"
     inkscape:pageshadow="2"
     inkscape:zoom="2.1912149"
     inkscape:cx="-20.597421"
     inkscape:cy="94.838622"
     inkscape:document-units="mm"
     inkscape:current-layer="layer1"
     showgrid="false"
     inkscape:window-width="1848"
     inkscape:window-height="1016"
     inkscape:window-x="72"
     inkscape:window-y="27"
     inkscape:window-maximized="1"
     fit-margin-top="0"
     fit-margin-left="0"
     fit-margin-right="0"
     fit-margin-bottom="0"
     inkscape:pagecheckerboard="true">
    <inkscape:grid
       type="xygrid"
       id="grid877"
       originx="-26.037152"
       originy="-31.900007" />
  </sodipodi:namedview>
  <metadata
     id="metadata5">
    <rdf:RDF>
      <cc:Work
         rdf:about="">
        <dc:format>image/svg+xml</dc:format>
        <dc:type
           rdf:resource="http://purl.org/dc/dcmitype/StillImage" />
        <dc:title></dc:title>
      </cc:Work>
    </rdf:RDF>
  </metadata>
  <g
     inkscape:label="Ebene 1"
     inkscape:groupmode="layer"
     id="layer1"
     transform="translate(-43.554159,-89.108888)">
    <path
       style="fill:#ffffff;stroke:#ffffff;stroke-width:0.99999994px;stroke-linecap:butt;stroke-linejoin:miter;stroke-opacity:1"
       d="m 182.67773,125.62109 c -1.88637,-0.0168 -3.82321,0.0867 -5.80273,0.32618 -15.83613,1.9162 -34.3296,12.57413 -40.38477,24.4707 -6.05516,11.89657 0.33013,25.02482 -5.37695,31.1582 -5.70708,6.13338 -23.50709,5.26927 -29.82422,22.0625 -6.317129,16.79324 -1.14865,51.24696 29.08399,65.12695 30.23263,13.88 85.52861,7.18558 119.29101,0.10157 33.76241,-7.08402 45.99003,-14.55745 52.33985,-32.42188 6.34982,-17.86443 6.822,-46.11864 -1.35157,-65.14258 -8.17357,-19.02394 -24.99307,-28.81864 -41.27148,-29.35937 -16.27841,-0.54073 -32.01728,8.17371 -38.64648,9.00586 -6.62921,0.83214 -4.14731,-6.21698 -9.4961,-13.1543 -4.68019,-6.07015 -15.35595,-12.056 -28.56055,-12.17383 z m -17.35742,58.03125 c 2.58943,0 4.44766,1.54315 5.40235,2.7461 0.95468,1.20295 1.43468,2.35742 1.83789,3.55859 0.8064,2.40238 1.16015,5.0749 1.16015,8.03125 0,2.95635 -0.35374,5.63668 -1.16015,8.03906 -0.40321,1.20121 -0.88321,2.34784 -1.83789,3.55078 -0.95469,1.20295 -2.81292,2.7461 -5.40235,2.7461 -2.58942,0 -4.44961,-1.54315 -5.40429,-2.7461 -0.95469,-1.20294 -1.43469,-2.34957 -1.8379,-3.55078 -0.8064,-2.40238 -1.1582,-5.08271 -1.1582,-8.03906 0,-2.95635 0.35179,-5.62887 1.1582,-8.03125 0.40321,-1.20117 0.88321,-2.35564 1.8379,-3.55859 0.95468,-1.20295 2.81487,-2.7461 5.40429,-2.7461 z m 67.31446,0 c 2.58943,0 4.44179,1.54315 5.39648,2.7461 0.95469,1.20295 1.4425,2.35742 1.8457,3.55859 0.80641,2.40238 1.15821,5.0749 1.15821,8.03125 0,2.95635 -0.35179,5.63668 -1.15821,8.03906 -0.4032,1.20121 -0.89101,2.34784 -1.8457,3.55078 -0.95469,1.20295 -2.80705,2.7461 -5.39648,2.7461 -2.58943,0 -4.44766,-1.54315 -5.40235,-2.7461 -0.95468,-1.20294 -1.43663,-2.34957 -1.83984,-3.55078 -0.80641,-2.40238 -1.1582,-5.08271 -1.1582,-8.03906 0,-2.95635 0.35178,-5.62887 1.1582,-8.03125 0.40321,-1.20117 0.88516,-2.35564 1.83984,-3.55859 0.95469,-1.20295 2.81292,-2.7461 5.40235,-2.7461 z m -60.67188,41.75196 c 0.7584,-0.0209 1.50989,0.14905 2.18555,0.49414 0,0 4.22042,2.15342 9.58203,4.30468 5.36161,2.15124 12.05488,4.1366 15.36914,4.13282 3.2735,-0.005 9.90607,-1.99359 15.21289,-4.14063 5.30683,-2.14707 9.47852,-4.28906 9.47852,-4.28906 3.0152,-1.54723 6.59961,0.64224 6.5996,4.03125 2e-5,9.38872 -6.58981,17.56549 -16.1582,21.73828 -9.56838,4.17279 -20.94138,4.17279 -30.50976,0 -9.56839,-4.17279 -16.16603,-12.34956 -16.16602,-21.73828 -0.002,-2.45534 1.95184,-4.4656 4.40625,-4.5332 z"
       transform="matrix(0.26458333,0,0,0.26458333,17.517009,56.004397)"
       id="path821"
       inkscape:connector-curvature="0"
       sodipodi:nodetypes="ccsssssssscscsccsccsccsccssscsccsccsccscccccccsscc" />
  </g>
</svg>
