<svg width="190" height="33" viewBox="0 0 190 33" fill="none" xmlns="http://www.w3.org/2000/svg">
<path d="M79.6281 18.6894C78.9561 18.4014 77.8201 18.1614 76.8441 18.1614C73.1001 18.1614 71.4201 20.2094 71.4201 24.2734C71.4201 28.5934 73.1161 30.5934 76.7161 30.5934C77.7561 30.5934 78.8921 30.3054 79.6761 29.9214L79.4201 28.0814C78.7321 28.3854 77.9321 28.5934 77.0041 28.5934C74.6521 28.5934 73.7401 27.5854 73.7401 24.2894C73.7401 21.1854 74.6201 20.1934 76.9561 20.1934C77.8841 20.1934 78.7641 20.3854 79.3881 20.6254L79.6281 18.6894Z" fill="white"/>
<path d="M91.0359 24.3694C91.0359 20.0494 89.5799 18.1774 85.9159 18.1774C82.2359 18.1774 80.7639 20.0494 80.7639 24.3694C80.7639 28.6894 82.2839 30.5934 85.9159 30.5934C89.5799 30.5934 91.0359 28.7534 91.0359 24.3694ZM88.7319 24.3694C88.7319 27.6654 87.9799 28.5614 85.9159 28.5614C83.8519 28.5614 83.0839 27.6814 83.0839 24.3694C83.0839 21.0574 83.8519 20.2094 85.8999 20.2094C87.9959 20.2094 88.7319 21.0414 88.7319 24.3694Z" fill="white"/>
<path d="M97.1497 28.2894C97.1497 27.1694 96.3977 26.4014 94.7977 26.4014C93.8537 26.4014 93.0697 26.6574 92.4617 27.0574L92.8137 28.2254C93.3737 27.8734 93.9017 27.6494 94.5257 27.6494C95.3097 27.6494 95.6137 27.9854 95.6137 28.4174C95.6137 29.3454 94.2537 30.3054 92.5417 31.8254V32.7854H97.1337L97.1497 31.5534H94.4297V31.5054C96.0457 30.3694 97.1497 29.5214 97.1497 28.2894Z" fill="white"/>
<path d="M103.541 18.3694V30.3694H105.493V23.4414L105.477 22.1454L105.509 22.1294L105.973 23.3454L108.773 30.3694H110.277L113.093 23.3454L113.557 22.1294L113.605 22.1454L113.573 23.4414V30.3694H115.589V18.3694H113.141L110.037 26.0174L109.589 27.2174H109.541L109.077 26.0174L106.005 18.3694H103.541Z" fill="white"/>
<path d="M126.165 25.5854C126.165 22.0334 124.885 20.5614 121.893 20.5614C118.917 20.5614 117.573 22.0334 117.573 25.5854C117.573 29.1534 118.917 30.5934 121.893 30.5934C124.885 30.5934 126.165 29.1534 126.165 25.5854ZM119.685 25.5854C119.685 23.0574 120.293 22.2894 121.893 22.2894C123.477 22.2894 124.069 23.0574 124.069 25.5854C124.069 28.1134 123.477 28.8814 121.893 28.8814C120.309 28.8814 119.685 28.1134 119.685 25.5854Z" fill="white"/>
<path d="M135.814 30.3694V24.1294C135.814 21.7934 134.534 20.5614 132.502 20.5614C131.462 20.5614 130.486 20.9294 129.766 21.6014L129.446 20.6734L127.99 20.7854V30.3694H130.022V23.2974C130.422 22.7374 131.222 22.4174 131.942 22.4174C133.126 22.4174 133.782 22.9294 133.782 24.1454V30.3694H135.814Z" fill="white"/>
<path d="M140.39 30.3694V20.6894L138.326 20.8014V30.3694H140.39ZM140.582 18.5134C140.582 17.8894 140.198 17.5374 139.366 17.5374C138.55 17.5374 138.15 17.8894 138.15 18.5134C138.15 19.2174 138.55 19.4574 139.366 19.4574C140.198 19.4574 140.582 19.1534 140.582 18.5134Z" fill="white"/>
<path d="M147.821 22.3054V20.7374H145.565V18.3214L143.965 18.4814L143.597 20.7374H142.333V22.3054H143.533V27.7134C143.533 29.4894 144.429 30.5294 146.237 30.5294C146.829 30.5294 147.421 30.4174 147.741 30.2734L147.613 28.7534C147.437 28.8174 147.085 28.8654 146.829 28.8654C146.013 28.8654 145.565 28.5134 145.565 27.6654V22.3054H147.821Z" fill="white"/>
<path d="M157.368 25.5854C157.368 22.0334 156.088 20.5614 153.096 20.5614C150.12 20.5614 148.776 22.0334 148.776 25.5854C148.776 29.1534 150.12 30.5934 153.096 30.5934C156.088 30.5934 157.368 29.1534 157.368 25.5854ZM150.888 25.5854C150.888 23.0574 151.496 22.2894 153.096 22.2894C154.68 22.2894 155.272 23.0574 155.272 25.5854C155.272 28.1134 154.68 28.8814 153.096 28.8814C151.512 28.8814 150.888 28.1134 150.888 25.5854Z" fill="white"/>
<path d="M161.226 30.3694V25.5214C161.226 23.7134 162.298 22.6254 163.69 22.6254C164.042 22.6254 164.394 22.6894 164.698 22.7854L164.826 20.7214C164.57 20.6414 164.218 20.5934 163.818 20.5934C162.634 20.5934 161.642 21.2654 161.05 22.5134H161.002L160.826 20.7054L159.194 20.8014V30.3694H161.226Z" fill="white"/>
<path d="M168.828 30.3694V20.6894L166.764 20.8014V30.3694H168.828ZM169.02 18.5134C169.02 17.8894 168.636 17.5374 167.804 17.5374C166.988 17.5374 166.588 17.8894 166.588 18.5134C166.588 19.2174 166.988 19.4574 167.804 19.4574C168.636 19.4574 169.02 19.1534 169.02 18.5134Z" fill="white"/>
<path d="M179.314 30.3694V24.1294C179.314 21.7934 178.034 20.5614 176.002 20.5614C174.962 20.5614 173.986 20.9294 173.266 21.6014L172.946 20.6734L171.49 20.7854V30.3694H173.522V23.2974C173.922 22.7374 174.722 22.4174 175.442 22.4174C176.626 22.4174 177.282 22.9294 177.282 24.1454V30.3694H179.314Z" fill="white"/>
<path d="M184.882 26.4014C187.442 26.4014 188.418 25.3614 188.418 23.5214C188.418 23.0734 188.354 22.6894 188.226 22.3694L189.298 21.5694L188.866 20.5614L187.266 21.1374C186.594 20.7054 185.714 20.5774 184.882 20.5774C182.306 20.5774 181.33 21.7454 181.33 23.5214C181.33 24.6414 181.762 25.3454 182.434 25.7774C181.618 26.1454 181.234 26.7374 181.234 27.3774C181.234 28.0174 181.554 28.4814 181.986 28.7534C181.442 29.2014 181.154 29.7934 181.154 30.4174C181.154 31.9054 182.29 32.9614 184.978 32.9614C188.05 32.9614 189.25 31.7934 189.25 29.9374C189.25 28.5134 188.434 27.7134 186.146 27.5534L183.826 27.3934C183.33 27.3614 183.106 27.1374 183.106 26.8654C183.106 26.6254 183.298 26.4174 183.618 26.2894C184.018 26.3694 184.45 26.4014 184.882 26.4014ZM185.794 29.3134C187.106 29.4094 187.41 29.6974 187.41 30.2414C187.41 30.9294 186.914 31.3934 184.93 31.3934C183.49 31.3934 182.898 30.9614 182.898 30.1614C182.898 29.8254 183.106 29.4414 183.474 29.1374L185.794 29.3134ZM184.898 22.1454C186.002 22.1454 186.466 22.5134 186.466 23.5534C186.466 24.5294 186.098 24.9614 184.85 24.9614C183.954 24.9614 183.33 24.6734 183.33 23.5534C183.33 22.5934 183.746 22.1454 184.898 22.1454Z" fill="white"/>
<path d="M64.9003 21.3363C64.9003 15.3897 62.7878 12.717 57.5622 12.717C52.3588 12.717 50.2018 15.3897 50.2018 21.3363C50.2018 27.2828 52.4255 30 57.5622 30C62.7878 30 64.9003 27.3942 64.9003 21.3363ZM60.9866 21.3363C60.9866 25.5456 60.0971 26.637 57.5844 26.637C55.0494 26.637 54.1377 25.5679 54.1377 21.3363C54.1377 17.1046 55.0272 16.0801 57.5622 16.0801C60.1194 16.0801 60.9866 17.1046 60.9866 21.3363Z" fill="white"/>
<path d="M28.8499 21.3363C28.8499 15.3897 26.7374 12.717 21.5118 12.717C16.3084 12.717 14.1514 15.3897 14.1514 21.3363C14.1514 27.2828 16.3751 30 21.5118 30C26.7374 30 28.8499 27.3942 28.8499 21.3363ZM24.9362 21.3363C24.9362 25.5456 24.0468 26.637 21.534 26.637C18.999 26.637 18.0873 25.5679 18.0873 21.3363C18.0873 17.1046 18.9768 16.0801 21.5118 16.0801C24.069 16.0801 24.9362 17.1046 24.9362 21.3363Z" fill="white"/>
<path d="M11.6075 13.2392C10.6514 12.8606 9.07257 12.5488 7.73836 12.5488C2.40156 12.5488 0 15.5109 0 21.0789C0 27.0478 2.44604 29.854 7.49376 29.854C8.96138 29.854 10.5624 29.4754 11.652 28.9409L11.274 25.8896C10.3401 26.2905 9.25046 26.5355 8.02744 26.5355C4.98102 26.5355 3.93589 25.2883 3.93589 21.1012C3.93589 17.1368 4.93654 15.9118 7.96073 15.9118C9.20599 15.9118 10.3623 16.1346 11.2295 16.4686L11.6075 13.2392Z" fill="white"/>
<path fill-rule="evenodd" clip-rule="evenodd" d="M47.4227 2.04093C47.1896 1.29369 46.5134 0.77332 45.7324 0.740198C44.9515 0.707077 44.2338 1.16832 43.9384 1.89315L38.8655 14.3413L35.7309 7.0878C35.4392 6.41289 34.7772 5.97412 34.043 5.96909C33.3087 5.96407 32.6408 6.39374 32.3399 7.0646L28.1516 16.4044C28.6278 17.6633 28.849 19.2447 28.849 21.1688C28.849 22.4376 28.7563 23.5551 28.5617 24.5288H28.571L33.999 12.4249L37.2151 19.8669C37.5114 20.5526 38.1892 20.9934 38.9351 20.9856C39.6809 20.9778 40.3494 20.5228 40.6313 19.8311L45.4224 8.0744L50.4315 24.1291C50.2763 23.2497 50.2009 22.264 50.2009 21.1688C50.2009 18.5591 50.6163 16.5799 51.5224 15.1805L47.4227 2.04093ZM24.5772 24.5288H24.5082L24.6822 24.1408C24.6505 24.2773 24.6155 24.4065 24.5772 24.5288Z" fill="url(#paint0_linear_0_33)"/>
<defs>
<linearGradient id="paint0_linear_0_33" x1="51.5224" y1="0.738525" x2="24.5082" y2="0.738525" gradientUnits="userSpaceOnUse">
<stop offset="0.322917" stop-color="#D12C3A"/>
<stop offset="0.640625" stop-color="#223B89"/>
</linearGradient>
</defs>
</svg>
